<svg width="32" height="32" viewBox="0 0 32 32" fill="none" xmlns="http://www.w3.org/2000/svg">
  <defs>
    <linearGradient id="bgGradient" x1="4" y1="3" x2="28" y2="29" gradientUnits="userSpaceOnUse">
      <stop stop-color="#F3E7DD"/>
      <stop offset="0.38" stop-color="#D97C5D"/>
      <stop offset="1" stop-color="#B94D32"/>
    </linearGradient>
  </defs>
  <rect width="32" height="32" rx="8" fill="url(#bgGradient)"/>
  <circle cx="16" cy="16" r="10" fill="rgba(255,255,255,0.08)" stroke="rgba(255,255,255,0.22)"/>
  <path d="M10 23C11.4 19.1 14.3 17 18 16.5C19 13.7 21.3 12 24 12C22.8 15.6 20.7 18 18 19.6C15.9 20.9 13 21.4 10 23Z" fill="rgba(255,255,255,0.18)"/>
  <path d="M9 22C9 17.7 11.3 14.2 15.3 13.4C17 13.1 18.6 13.5 20.1 14.5C19.6 12 17.5 10 15 10C11.7 10 9 12.7 9 16V22H9Z" fill="#FFFDFB"/>
  <path d="M14.6 21.8V14.2C14.6 13.2 15.4 12.4 16.4 12.4H19.1C20.1 12.4 20.9 13.2 20.9 14.2V18.2H17.7V15.9H14.9V21.8H14.6Z" fill="#F8B89D" fill-opacity="0.7"/>
  <path d="M15 21.8V14.3L21.3 21.8V14.3" stroke="#FDE3D6" stroke-width="1.7" stroke-linecap="round" stroke-linejoin="round"/>
  <circle cx="22.7" cy="9.2" r="2.2" fill="#F6D7A7"/>
  <path d="M22.7 7.7V9.2L24.3 10.8" stroke="#7A3D2B" stroke-width="1" stroke-linecap="round" stroke-linejoin="round"/>
</svg>
